<svg width="453" height="49" viewBox="0 0 453 49" fill="none" xmlns="http://www.w3.org/2000/svg">
<path d="M28.1875 3.328V10.56H9.5635V22.016H23.8355V29.12H9.5635V48H0.6035V3.328H28.1875ZM50.285 48.576C46.8717 48.576 43.7997 47.8293 41.069 46.336C38.3383 44.8 36.1837 42.6453 34.605 39.872C33.069 37.0987 32.301 33.8987 32.301 30.272C32.301 26.6453 33.0903 23.4453 34.669 20.672C36.2903 17.8987 38.4877 15.7653 41.261 14.272C44.0343 12.736 47.1277 11.968 50.541 11.968C53.9543 11.968 57.0477 12.736 59.821 14.272C62.5943 15.7653 64.7703 17.8987 66.349 20.672C67.9703 23.4453 68.781 26.6453 68.781 30.272C68.781 33.8987 67.949 37.0987 66.285 39.872C64.6637 42.6453 62.445 44.8 59.629 46.336C56.8557 47.8293 53.741 48.576 50.285 48.576ZM50.285 40.768C51.9063 40.768 53.421 40.384 54.829 39.616C56.2797 38.8053 57.4317 37.6107 58.285 36.032C59.1383 34.4533 59.565 32.5333 59.565 30.272C59.565 26.9013 58.669 24.32 56.877 22.528C55.1277 20.6933 52.973 19.776 50.413 19.776C47.853 19.776 45.6983 20.6933 43.949 22.528C42.2423 24.32 41.389 26.9013 41.389 30.272C41.389 33.6427 42.221 36.2453 43.885 38.08C45.5917 39.872 47.725 40.768 50.285 40.768ZM84.3135 18.048C85.4655 16.1707 86.9588 14.6987 88.7935 13.632C90.6708 12.5653 92.8042 12.032 95.1935 12.032V21.44H92.8255C90.0095 21.44 87.8762 22.1013 86.4255 23.424C85.0175 24.7467 84.3135 27.0507 84.3135 30.336V48H75.3535V12.544H84.3135V18.048ZM146.879 3.328V10.56H134.975V48H126.015V10.56H114.111V3.328H146.879ZM173.384 12.032C176.072 12.032 178.461 12.6293 180.552 13.824C182.643 14.976 184.264 16.704 185.416 19.008C186.611 21.2693 187.208 24 187.208 27.2V48H178.248V28.416C178.248 25.6 177.544 23.4453 176.136 21.952C174.728 20.416 172.808 19.648 170.376 19.648C167.901 19.648 165.939 20.416 164.488 21.952C163.08 23.4453 162.376 25.6 162.376 28.416V48H153.416V0.639999H162.376V16.96C163.528 15.424 165.064 14.2293 166.984 13.376C168.904 12.48 171.037 12.032 173.384 12.032ZM228.689 29.504C228.689 30.784 228.603 31.936 228.433 32.96H202.513C202.726 35.52 203.622 37.5253 205.201 38.976C206.779 40.4267 208.721 41.152 211.025 41.152C214.353 41.152 216.721 39.7227 218.129 36.864H227.793C226.769 40.2773 224.806 43.0933 221.905 45.312C219.003 47.488 215.441 48.576 211.217 48.576C207.803 48.576 204.731 47.8293 202.001 46.336C199.313 44.8 197.201 42.6453 195.665 39.872C194.171 37.0987 193.424 33.8987 193.424 30.272C193.424 26.6027 194.171 23.3813 195.665 20.608C197.158 17.8347 199.249 15.7013 201.937 14.208C204.625 12.7147 207.718 11.968 211.217 11.968C214.587 11.968 217.595 12.6933 220.241 14.144C222.929 15.5947 224.998 17.664 226.449 20.352C227.942 22.9973 228.689 26.048 228.689 29.504ZM219.409 26.944C219.366 24.64 218.534 22.8053 216.913 21.44C215.291 20.032 213.307 19.328 210.961 19.328C208.742 19.328 206.865 20.0107 205.329 21.376C203.835 22.6987 202.918 24.5547 202.577 26.944H219.409Z" fill="white"/>
<path d="M278.062 3.328V10.56H259.439V22.016H273.711V29.12H259.439V48H250.479V3.328H278.062ZM317.888 12.544V48H308.864V43.52C307.712 45.056 306.197 46.272 304.32 47.168C302.485 48.0213 300.48 48.448 298.304 48.448C295.531 48.448 293.077 47.872 290.944 46.72C288.811 45.5253 287.125 43.7973 285.888 41.536C284.693 39.232 284.096 36.5013 284.096 33.344V12.544H293.056V32.064C293.056 34.88 293.76 37.056 295.168 38.592C296.576 40.0853 298.496 40.832 300.928 40.832C303.403 40.832 305.344 40.0853 306.752 38.592C308.16 37.056 308.864 34.88 308.864 32.064V12.544H317.888ZM337.161 19.904V37.056C337.161 38.2507 337.438 39.1253 337.993 39.68C338.59 40.192 339.571 40.448 340.937 40.448H345.097V48H339.465C331.913 48 328.137 44.3307 328.137 36.992V19.904H323.913V12.544H328.137V3.776H337.161V12.544H345.097V19.904H337.161ZM385.013 12.544V48H375.989V43.52C374.837 45.056 373.322 46.272 371.445 47.168C369.61 48.0213 367.605 48.448 365.429 48.448C362.656 48.448 360.202 47.872 358.069 46.72C355.936 45.5253 354.25 43.7973 353.013 41.536C351.818 39.232 351.221 36.5013 351.221 33.344V12.544H360.181V32.064C360.181 34.88 360.885 37.056 362.293 38.592C363.701 40.0853 365.621 40.832 368.053 40.832C370.528 40.832 372.469 40.0853 373.877 38.592C375.285 37.056 375.989 34.88 375.989 32.064V12.544H385.013ZM402.814 18.048C403.966 16.1707 405.459 14.6987 407.294 13.632C409.171 12.5653 411.304 12.032 413.694 12.032V21.44H411.326C408.51 21.44 406.376 22.1013 404.926 23.424C403.518 24.7467 402.814 27.0507 402.814 30.336V48H393.854V12.544H402.814V18.048ZM452.689 29.504C452.689 30.784 452.603 31.936 452.433 32.96H426.513C426.726 35.52 427.622 37.5253 429.201 38.976C430.779 40.4267 432.721 41.152 435.025 41.152C438.353 41.152 440.721 39.7227 442.129 36.864H451.793C450.769 40.2773 448.806 43.0933 445.905 45.312C443.003 47.488 439.441 48.576 435.217 48.576C431.803 48.576 428.731 47.8293 426.001 46.336C423.313 44.8 421.201 42.6453 419.665 39.872C418.171 37.0987 417.424 33.8987 417.424 30.272C417.424 26.6027 418.171 23.3813 419.665 20.608C421.158 17.8347 423.249 15.7013 425.937 14.208C428.625 12.7147 431.718 11.968 435.217 11.968C438.587 11.968 441.595 12.6933 444.241 14.144C446.929 15.5947 448.998 17.664 450.449 20.352C451.942 22.9973 452.689 26.048 452.689 29.504ZM443.409 26.944C443.366 24.64 442.534 22.8053 440.913 21.44C439.291 20.032 437.307 19.328 434.961 19.328C432.742 19.328 430.865 20.0107 429.329 21.376C427.835 22.6987 426.918 24.5547 426.577 26.944H443.409Z" fill="#FF7420"/>
</svg>
