<svg width="374" height="62" viewBox="0 0 374 62" fill="none" xmlns="http://www.w3.org/2000/svg">
<path d="M63.253 0.327999L50.773 45H40.213L31.829 13.192L23.061 45L12.565 45.064L0.533 0.327999H10.133L18.005 35.016L27.093 0.327999H37.077L45.653 34.824L53.589 0.327999H63.253ZM102.064 26.504C102.064 27.784 101.978 28.936 101.808 29.96H75.8875C76.1008 32.52 76.9968 34.5253 78.5755 35.976C80.1542 37.4267 82.0955 38.152 84.3995 38.152C87.7275 38.152 90.0955 36.7227 91.5035 33.864H101.168C100.144 37.2773 98.1808 40.0933 95.2795 42.312C92.3782 44.488 88.8155 45.576 84.5915 45.576C81.1782 45.576 78.1062 44.8293 75.3755 43.336C72.6875 41.8 70.5755 39.6453 69.0395 36.872C67.5462 34.0987 66.7995 30.8987 66.7995 27.272C66.7995 23.6027 67.5462 20.3813 69.0395 17.608C70.5328 14.8347 72.6235 12.7013 75.3115 11.208C77.9995 9.71467 81.0928 8.968 84.5915 8.968C87.9622 8.968 90.9702 9.69333 93.6155 11.144C96.3035 12.5947 98.3728 14.664 99.8235 17.352C101.317 19.9973 102.064 23.048 102.064 26.504ZM92.7835 23.944C92.7408 21.64 91.9088 19.8053 90.2875 18.44C88.6662 17.032 86.6822 16.328 84.3355 16.328C82.1168 16.328 80.2395 17.0107 78.7035 18.376C77.2102 19.6987 76.2928 21.5547 75.9515 23.944H92.7835ZM156.43 14.152C156.43 16.5413 155.854 18.7813 154.701 20.872C153.592 22.9627 151.822 24.648 149.39 25.928C147 27.208 143.971 27.848 140.302 27.848H132.814V45H123.854V0.327999H140.302C143.758 0.327999 146.702 0.925332 149.134 2.12C151.566 3.31467 153.379 4.95733 154.574 7.048C155.811 9.13866 156.43 11.5067 156.43 14.152ZM139.918 20.616C142.392 20.616 144.227 20.0613 145.422 18.952C146.616 17.8 147.214 16.2 147.214 14.152C147.214 9.8 144.782 7.624 139.918 7.624H132.814V20.616H139.918ZM171.751 15.048C172.903 13.1707 174.396 11.6987 176.231 10.632C178.108 9.56533 180.242 9.032 182.631 9.032V18.44H180.263C177.447 18.44 175.314 19.1013 173.863 20.424C172.455 21.7467 171.751 24.0507 171.751 27.336V45H162.791V9.544H171.751V15.048ZM221.626 26.504C221.626 27.784 221.541 28.936 221.37 29.96H195.45C195.663 32.52 196.559 34.5253 198.138 35.976C199.717 37.4267 201.658 38.152 203.962 38.152C207.29 38.152 209.658 36.7227 211.066 33.864H220.73C219.706 37.2773 217.743 40.0933 214.842 42.312C211.941 44.488 208.378 45.576 204.154 45.576C200.741 45.576 197.669 44.8293 194.938 43.336C192.25 41.8 190.138 39.6453 188.602 36.872C187.109 34.0987 186.362 30.8987 186.362 27.272C186.362 23.6027 187.109 20.3813 188.602 17.608C190.095 14.8347 192.186 12.7013 194.874 11.208C197.562 9.71467 200.655 8.968 204.154 8.968C207.525 8.968 210.533 9.69333 213.178 11.144C215.866 12.5947 217.935 14.664 219.386 17.352C220.879 19.9973 221.626 23.048 221.626 26.504ZM212.346 23.944C212.303 21.64 211.471 19.8053 209.85 18.44C208.229 17.032 206.245 16.328 203.898 16.328C201.679 16.328 199.802 17.0107 198.266 18.376C196.773 19.6987 195.855 21.5547 195.514 23.944H212.346ZM237.126 14.664C238.278 13.0427 239.857 11.6987 241.862 10.632C243.91 9.52267 246.235 8.968 248.838 8.968C251.867 8.968 254.598 9.71467 257.03 11.208C259.505 12.7013 261.446 14.8347 262.854 17.608C264.305 20.3387 265.03 23.5173 265.03 27.144C265.03 30.7707 264.305 33.992 262.854 36.808C261.446 39.5813 259.505 41.736 257.03 43.272C254.598 44.808 251.867 45.576 248.838 45.576C246.235 45.576 243.931 45.0427 241.926 43.976C239.963 42.9093 238.363 41.5653 237.126 39.944V61.896H228.166V9.544H237.126V14.664ZM255.878 27.144C255.878 25.0107 255.43 23.176 254.534 21.64C253.681 20.0613 252.529 18.8667 251.078 18.056C249.67 17.2453 248.134 16.84 246.47 16.84C244.849 16.84 243.313 17.2667 241.862 18.12C240.454 18.9307 239.302 20.1253 238.406 21.704C237.553 23.2827 237.126 25.1387 237.126 27.272C237.126 29.4053 237.553 31.2613 238.406 32.84C239.302 34.4187 240.454 35.6347 241.862 36.488C243.313 37.2987 244.849 37.704 246.47 37.704C248.134 37.704 249.67 37.2773 251.078 36.424C252.529 35.5707 253.681 34.3547 254.534 32.776C255.43 31.1973 255.878 29.32 255.878 27.144ZM269.237 27.144C269.237 23.56 269.941 20.3813 271.349 17.608C272.8 14.8347 274.741 12.7013 277.173 11.208C279.648 9.71467 282.4 8.968 285.429 8.968C288.074 8.968 290.378 9.50133 292.341 10.568C294.346 11.6347 295.946 12.9787 297.141 14.6V9.544H306.165V45H297.141V39.816C295.989 41.48 294.389 42.8667 292.341 43.976C290.336 45.0427 288.01 45.576 285.365 45.576C282.378 45.576 279.648 44.808 277.173 43.272C274.741 41.736 272.8 39.5813 271.349 36.808C269.941 33.992 269.237 30.7707 269.237 27.144ZM297.141 27.272C297.141 25.096 296.714 23.24 295.861 21.704C295.008 20.1253 293.856 18.9307 292.405 18.12C290.954 17.2667 289.397 16.84 287.733 16.84C286.069 16.84 284.533 17.2453 283.125 18.056C281.717 18.8667 280.565 20.0613 279.669 21.64C278.816 23.176 278.389 25.0107 278.389 27.144C278.389 29.2773 278.816 31.1547 279.669 32.776C280.565 34.3547 281.717 35.5707 283.125 36.424C284.576 37.2773 286.112 37.704 287.733 37.704C289.397 37.704 290.954 37.2987 292.405 36.488C293.856 35.6347 295.008 34.44 295.861 32.904C296.714 31.3253 297.141 29.448 297.141 27.272ZM323.876 15.048C325.028 13.1707 326.521 11.6987 328.356 10.632C330.233 9.56533 332.367 9.032 334.756 9.032V18.44H332.388C329.572 18.44 327.439 19.1013 325.988 20.424C324.58 21.7467 323.876 24.0507 323.876 27.336V45H314.916V9.544H323.876V15.048ZM373.751 26.504C373.751 27.784 373.666 28.936 373.495 29.96H347.575C347.788 32.52 348.684 34.5253 350.263 35.976C351.842 37.4267 353.783 38.152 356.087 38.152C359.415 38.152 361.783 36.7227 363.191 33.864H372.855C371.831 37.2773 369.868 40.0933 366.967 42.312C364.066 44.488 360.503 45.576 356.279 45.576C352.866 45.576 349.794 44.8293 347.063 43.336C344.375 41.8 342.263 39.6453 340.727 36.872C339.234 34.0987 338.487 30.8987 338.487 27.272C338.487 23.6027 339.234 20.3813 340.727 17.608C342.22 14.8347 344.311 12.7013 346.999 11.208C349.687 9.71467 352.78 8.968 356.279 8.968C359.65 8.968 362.658 9.69333 365.303 11.144C367.991 12.5947 370.06 14.664 371.511 17.352C373.004 19.9973 373.751 23.048 373.751 26.504ZM364.471 23.944C364.428 21.64 363.596 19.8053 361.975 18.44C360.354 17.032 358.37 16.328 356.023 16.328C353.804 16.328 351.927 17.0107 350.391 18.376C348.898 19.6987 347.98 21.5547 347.639 23.944H364.471Z" fill="white"/>
</svg>
